<svg width="29" height="28" viewBox="0 0 29 28" fill="none" xmlns="http://www.w3.org/2000/svg">
<g clip-path="url(#clip0_1637_3485)">
<path d="M27.578 17.3884C25.7081 24.8885 18.1118 29.4529 10.6109 27.5826C3.11302 25.7127 -1.45142 18.116 0.419326 10.6163C2.28833 3.11541 9.88465 -1.44946 17.3834 0.420413C24.8839 2.29029 29.4479 9.88791 27.578 17.3884Z" fill="#F3BA2F"/>
<g clip-path="url(#clip1_1637_3485)">
<path d="M10.1178 12.4042L14.0018 8.5203L17.8877 12.4062L20.1477 10.1462L14.0018 4L7.85788 10.1442L10.1178 12.4042ZM4.00195 13.9997L6.26202 11.7396L8.52193 13.9995L6.26189 16.2596L4.00195 13.9997ZM10.1178 15.5958L14.0018 19.4797L17.8876 15.5939L20.1488 17.8527L20.1477 17.8539L14.0018 24L7.85768 17.856L7.85448 17.8528L10.1178 15.5958ZM19.482 14.0009L21.742 11.7409L24.0019 14.0008L21.7419 16.2609L19.482 14.0009Z" fill="#231F20"/>
<path d="M16.2937 13.9983H16.2947L14.0014 11.7051L12.3066 13.3999H12.3065L12.1118 13.5947L11.7102 13.9963L11.707 13.9994L11.7102 14.0027L14.0014 16.294L16.2947 14.0007L16.2958 13.9994L16.2937 13.9983Z" fill="#231F20"/>
</g>
</g>
<defs>
<clipPath id="clip0_1637_3485">
<rect width="28" height="28" fill="white" transform="translate(0.00195312)"/>
</clipPath>
<clipPath id="clip1_1637_3485">
<rect width="20" height="20" fill="white" transform="translate(4.00195 4)"/>
</clipPath>
</defs>
</svg>
