<svg width="36" height="36" viewBox="0 0 36 36" fill="none" xmlns="http://www.w3.org/2000/svg">
<g clip-path="url(#clip0_2304_7789)">
<rect x="0.5" y="0.5" width="35" height="35" rx="17.5" fill="white" stroke="#000515"/>
<path d="M17.7556 14.9218L16.029 16.6537L15.4306 16.0534L18.0433 13.4325L20.6571 16.0545L20.0586 16.6547L18.331 14.9218L18.0433 14.6332L17.7556 14.9218Z" fill="#000515" stroke="#000515" stroke-width="0.8125"/>
<path d="M13.4308 18.0591L14.0292 17.4588L14.6276 18.059L14.0292 18.6593L13.4308 18.0591Z" fill="#000515" stroke="#000515" stroke-width="0.8125"/>
<path d="M16.0282 19.4644L17.7552 21.1966L18.0429 21.4852L18.3306 21.1966L20.0583 19.4636L20.6571 20.0636L18.0429 22.6859L15.4288 20.0639L16.0282 19.4644Z" fill="#000515" stroke="#000515" stroke-width="0.8125"/>
<path d="M22.0571 17.4594L22.6555 18.0596L22.057 18.6599L21.4586 18.0597L22.0571 17.4594Z" fill="#000515" stroke="#000515" stroke-width="0.8125"/>
<path d="M18.0432 17.441L18.6596 18.0592L18.0432 18.6775L17.4269 18.0592L17.452 18.0341L18.0432 17.441ZM16.9241 17.992L16.855 18.0576L16.855 18.0609L16.8567 18.0592L16.9241 17.992Z" fill="#000515" stroke="#000515" stroke-width="0.8125"/>
</g>
<defs>
<clipPath id="clip0_2304_7789">
<rect width="36" height="36" fill="white"/>
</clipPath>
</defs>
</svg>
