<svg width="44" height="44" viewBox="0 0 44 44" fill="none" xmlns="http://www.w3.org/2000/svg">
<path d="M27.5 11C27.5 14.0376 25.0376 16.5 22 16.5C18.9624 16.5 16.5 14.0376 16.5 11C16.5 7.96243 18.9624 5.5 22 5.5C25.0376 5.5 27.5 7.96243 27.5 11Z" fill="white"/>
<path d="M16.5 11C16.5 11.7223 16.6423 12.4375 16.9187 13.1048C17.1951 13.772 17.6002 14.3784 18.1109 14.8891C18.6216 15.3998 19.228 15.8049 19.8952 16.0813C20.5625 16.3577 21.2777 16.5 22 16.5C22.7223 16.5 23.4375 16.3577 24.1048 16.0813C24.7721 15.8049 25.3784 15.3998 25.8891 14.8891C26.3998 14.3784 26.8049 13.772 27.0813 13.1048C27.3577 12.4375 27.5 11.7223 27.5 11C27.5 10.2777 27.3577 9.56253 27.0813 8.89524C26.8049 8.22795 26.3998 7.62163 25.8891 7.11091C25.3784 6.60019 24.772 6.19506 24.1048 5.91866C23.4375 5.64226 22.7223 5.5 22 5.5C21.2777 5.5 20.5625 5.64226 19.8952 5.91866C19.2279 6.19506 18.6216 6.60019 18.1109 7.11091C17.6002 7.62164 17.1951 8.22795 16.9187 8.89524C16.6423 9.56254 16.5 10.2777 16.5 11L16.5 11Z" stroke="#000515"/>
<path d="M38.6836 30.2891C38.6836 33.3266 36.0376 35.5 33 35.5C29.9624 35.5 27.5 33.3266 27.5 30.2891C27.5 27.2515 29.9624 24.5 33 24.5C36.0376 24.5 38.6836 27.2515 38.6836 30.2891Z" fill="#000515"/>
<path d="M16.5 30.5C16.5 33.5376 14.0376 36 11 36C7.96243 36 5.5 33.5376 5.5 30.5C5.5 27.4624 7.96243 24.5 11 24.5C14.0376 24.5 16.5 27.4624 16.5 30.5Z" fill="white"/>
<path d="M8.13603 25.4862C7.51053 25.8473 6.96228 26.3281 6.52259 26.9011C6.0829 27.4741 5.76038 28.1281 5.57344 28.8258C5.3865 29.5235 5.33881 30.2511 5.43308 30.9672C5.52736 31.6833 5.76176 32.3738 6.12289 32.9993C6.48403 33.6248 6.96483 34.1731 7.53784 34.6128C8.11086 35.0524 8.76487 35.375 9.46253 35.5619C10.1602 35.7488 10.8878 35.7965 11.6039 35.7023C12.32 35.608 13.0105 35.3736 13.636 35.0125C14.2615 34.6513 14.8098 34.1705 15.2495 33.5975C15.6892 33.0245 16.0117 32.3705 16.1986 31.6728C16.3856 30.9752 16.4333 30.2475 16.339 29.5314C16.2447 28.8153 16.0103 28.1248 15.6492 27.4993C15.288 26.8738 14.8072 26.3256 14.2342 25.8859C13.6612 25.4462 13.0072 25.1237 12.3095 24.9367C11.6119 24.7498 10.8842 24.7021 10.1681 24.7964C9.45204 24.8906 8.76153 25.125 8.13603 25.4862L8.13603 25.4862Z" stroke="#000515"/>
<path d="M35.864 25.4862C36.4895 25.8473 37.0377 26.3281 37.4774 26.9011C37.9171 27.4741 38.2396 28.1281 38.4266 28.8258C38.6135 29.5235 38.6612 30.2511 38.5669 30.9672C38.4726 31.6833 38.2382 32.3738 37.8771 32.9993C37.516 33.6248 37.0352 34.1731 36.4622 34.6128C35.8891 35.0524 35.2351 35.375 34.5375 35.5619C33.8398 35.7488 33.1122 35.7965 32.3961 35.7023C31.68 35.608 30.9895 35.3736 30.364 35.0125C29.7385 34.6513 29.1902 34.1705 28.7505 33.5975C28.3108 33.0245 27.9883 32.3705 27.8014 31.6728C27.6144 30.9752 27.5667 30.2475 27.661 29.5314C27.7553 28.8153 27.9897 28.1248 28.3508 27.4993C28.712 26.8738 29.1928 26.3256 29.7658 25.8859C30.3388 25.4462 30.9928 25.1237 31.6905 24.9367C32.3881 24.7498 33.1158 24.7021 33.8319 24.7964C34.548 24.8906 35.2385 25.125 35.864 25.4862L35.864 25.4862Z" stroke="#000515"/>
<path fill-rule="evenodd" clip-rule="evenodd" d="M16.5044 10.7765C14.8148 11.4876 13.2791 12.5199 11.9826 13.8165C10.6671 15.132 9.62356 16.6937 8.91162 18.4125C8.19968 20.1313 7.83325 21.9734 7.83325 23.8338C7.83325 24.4264 7.87042 25.0171 7.9441 25.6025C7.61741 25.8093 7.31388 26.0497 7.03832 26.3194C6.90216 25.4999 6.83325 24.6685 6.83325 23.8338C6.83325 21.8421 7.22555 19.8699 7.98774 18.0298C8.74994 16.1897 9.86711 14.5177 11.2755 13.1094C12.6838 11.701 14.3558 10.5838 16.1959 9.82164C16.3538 9.75625 16.5126 9.69358 16.6723 9.63365C16.5765 10.0072 16.5201 10.3902 16.5044 10.7765ZM27.4952 10.7764C29.1849 11.4875 30.7207 12.5199 32.0173 13.8165C33.3328 15.132 34.3763 16.6937 35.0882 18.4125C35.8002 20.1312 36.1666 21.9734 36.1666 23.8338C36.1666 24.4264 36.1294 25.0172 36.0557 25.6027C36.3824 25.8095 36.6859 26.0499 36.9615 26.3197C37.0977 25.5 37.1666 24.6686 37.1666 23.8338C37.1666 21.8421 36.7743 19.8699 36.0121 18.0298C35.2499 16.1897 34.1327 14.5177 32.7244 13.1094C31.316 11.701 29.6441 10.5838 27.8039 9.82164C27.646 9.75621 27.4871 9.69351 27.3272 9.63354C27.4231 10.007 27.4795 10.3901 27.4952 10.7764ZM31.6346 35.5471C31.2632 35.4434 30.9032 35.3007 30.5608 35.1213C29.5977 35.8517 28.5429 36.4575 27.4213 36.9221C25.7025 37.634 23.8603 38.0005 21.9999 38.0005C20.1395 38.0005 18.2974 37.6341 16.5786 36.9221C15.4569 36.4575 14.4021 35.8517 13.439 35.1212C13.0965 35.3007 12.7366 35.4433 12.3652 35.547C13.5195 36.4965 14.81 37.2719 16.1959 37.846C18.036 38.6082 20.0082 39.0005 21.9999 39.0005C23.9916 39.0005 25.9638 38.6082 27.804 37.846C29.1898 37.2719 30.4803 36.4966 31.6346 35.5471Z" fill="#000515"/>
</svg>
