<svg width="28" height="28" viewBox="0 0 28 28" fill="none" xmlns="http://www.w3.org/2000/svg">
<g clip-path="url(#clip0_3306_10753)">
<path d="M12.4902 0.374867L12.4902 0.374996L12.5 0.374996C13.1243 0.374997 13.581 0.38379 13.9165 0.408665C14.2616 0.434255 14.4363 0.47474 14.5234 0.514373C14.547 0.525135 14.558 0.533169 14.562 0.536533C14.5628 0.538727 14.5641 0.54267 14.5655 0.549056C14.5791 0.609406 14.5755 0.707154 14.5562 0.93479L14.5389 1.13815L14.7003 1.26305C14.7813 1.32575 14.8677 1.43731 14.89 1.55043C14.9055 1.62899 14.9054 1.77222 14.6801 1.97349L14.5548 2.08531L14.5548 2.2532L14.5548 6.15929L14.5548 6.19271L14.5607 6.2256C14.6149 6.52703 14.7599 6.98312 15.0241 7.41443C15.2882 7.84559 15.6932 8.28595 16.2807 8.48962C16.6983 8.63441 17.1085 8.90616 17.4584 9.20099C17.8067 9.49457 18.0755 9.79416 18.2107 9.97127L18.2193 9.98255L18.2288 9.99314C18.3111 10.0856 18.625 10.6362 18.625 11.7197L18.625 27.3923C18.6208 27.3979 18.6159 27.4041 18.6102 27.4107C18.5839 27.4414 18.5432 27.4782 18.4841 27.5124C18.369 27.579 18.1682 27.6446 17.8419 27.6141L17.8245 27.6124L17.807 27.6124L8.26316 27.6124L8.24156 27.6124L8.22011 27.6149C8.05409 27.6341 7.80905 27.6296 7.61613 27.5689C7.43702 27.5125 7.38675 27.4422 7.3751 27.3686L7.44517 11.1699L7.44526 11.1507L7.44337 11.1315C7.41341 10.8274 7.61471 9.77081 9.05735 8.84398C9.48535 8.69804 10.0912 8.41255 10.5848 7.99876C11.0848 7.57957 11.5415 6.9633 11.4452 6.18088L11.4452 2.2532L11.4452 2.05052L11.2756 1.93948C11.2268 1.90753 11.1593 1.83244 11.1406 1.73191C11.1251 1.64843 11.1299 1.47581 11.3561 1.20908L11.4747 1.06939L11.4373 0.890041C11.4169 0.791944 11.4281 0.682985 11.5064 0.599166C11.5905 0.509178 11.8344 0.35769 12.4902 0.374867ZM14.5639 0.538268C14.5638 0.538267 14.5637 0.538101 14.5634 0.537756C14.5637 0.538094 14.5639 0.538269 14.5639 0.538268Z" fill="white" stroke="#9A1FA1" stroke-width="0.75"/>
<path d="M11.5 6.5H14.5" stroke="#9A1FA1" stroke-width="0.75"/>
<path d="M17 18H9V25H17V18Z" stroke="#9A1FA1" stroke-width="0.75"/>
<path d="M11.5 3H14.5" stroke="#9A1FA1" stroke-width="0.75"/>
</g>
<defs>
<clipPath id="clip0_3306_10753">
<rect width="28" height="28" fill="white"/>
</clipPath>
</defs>
</svg>
