<svg width="28" height="28" viewBox="0 0 28 28" fill="none" xmlns="http://www.w3.org/2000/svg">
<path d="M27.578 17.3869C25.7081 24.887 18.1118 29.4514 10.6109 27.5811C3.11302 25.7113 -1.45142 18.1145 0.419326 10.6149C2.28833 3.11394 9.88465 -1.45093 17.3834 0.418948C24.8839 2.28882 29.4479 9.88645 27.578 17.3869Z" fill="white"/>
<path d="M20.3651 6.99854H22.9667L17.5526 12.3929C15.592 14.3454 12.4132 14.3454 10.4511 12.3929L5.03491 6.99854H7.63858L11.7519 11.0963C12.3512 11.6907 13.1588 12.0239 14.0003 12.0239C14.8417 12.0239 15.6494 11.6907 16.2487 11.0963L20.3651 6.99854Z" fill="black"/>
<path d="M7.60527 21.9984H5.00195L10.4512 16.5708C12.4118 14.6183 15.5907 14.6183 17.5527 16.5708L23.002 21.9984H20.4004L16.252 17.8674C15.6526 17.273 14.845 16.9398 14.0035 16.9398C13.1621 16.9398 12.3544 17.273 11.7551 17.8674L7.60527 21.9984Z" fill="black"/>
</svg>
