<svg width="28" height="28" viewBox="0 0 28 28" fill="none" xmlns="http://www.w3.org/2000/svg">
<g clip-path="url(#clip0_1637_3457)">
<path d="M27.5761 17.3884C25.7062 24.8885 18.1099 29.4529 10.6089 27.5826C3.11107 25.7127 -1.45338 18.116 0.417373 10.6163C2.28637 3.11541 9.8827 -1.44946 17.3814 0.420413C24.8819 2.29029 29.4459 9.88791 27.5761 17.3884Z" fill="#F7931A"/>
<path d="M20.1692 12.0072C20.4479 10.1443 19.0295 9.14289 17.09 8.47483L17.7192 5.95132L16.1831 5.56851L15.5706 8.02551C15.1668 7.92488 14.752 7.82995 14.3399 7.73589L14.9568 5.2627L13.4216 4.87988L12.792 7.4025C12.4578 7.32638 12.1297 7.25114 11.8112 7.17195L11.8129 7.16407L9.69455 6.63513L9.28593 8.27576C9.28593 8.27576 10.4256 8.53694 10.4016 8.55313C11.0237 8.70844 11.1361 9.12013 11.1173 9.4465L10.4007 12.3213C10.4435 12.3323 10.4991 12.348 10.5604 12.3725C10.5092 12.3598 10.4545 12.3458 10.3981 12.3323L9.39354 16.3595C9.31742 16.5485 9.12449 16.8319 8.68962 16.7243C8.70493 16.7466 7.57311 16.4456 7.57311 16.4456L6.81055 18.204L8.80948 18.7023C9.18136 18.7954 9.54579 18.893 9.90454 18.9849L9.26887 21.5373L10.8032 21.9201L11.4327 19.3948C11.8519 19.5086 12.2587 19.6136 12.6569 19.7125L12.0295 22.2259L13.5655 22.6087L14.2012 20.0611C16.8205 20.5568 18.7902 20.3569 19.6192 17.9878C20.2873 16.0803 19.586 14.98 18.2079 14.2625C19.2115 14.0311 19.9675 13.3709 20.1692 12.0072ZM16.6595 16.9286C16.1849 18.8361 12.9732 17.8049 11.9319 17.5464L12.7754 14.1649C13.8167 14.4248 17.1557 14.9393 16.6595 16.9286ZM17.1347 11.9796C16.7015 13.7148 14.0284 12.8332 13.1613 12.6171L13.9261 9.5502C14.7932 9.76633 17.5857 10.1697 17.1347 11.9796Z" fill="white"/>
</g>
<defs>
<clipPath id="clip0_1637_3457">
<rect width="28" height="28" fill="white"/>
</clipPath>
</defs>
</svg>
