<svg width="36" height="36" viewBox="0 0 36 36" fill="none" xmlns="http://www.w3.org/2000/svg">
<g clip-path="url(#clip0_2304_7780)">
<rect x="0.5" y="0.5" width="35" height="35" rx="17.5" fill="white" stroke="#000515"/>
<path opacity="0.8" d="M17.9998 10.2857L17.9155 10.608L17.9155 19.9596L17.9998 20.0542L21.8553 17.4883L17.9998 10.2857Z" fill="#000515"/>
<path opacity="0.8" d="M17.9984 10.2857L14.1429 17.4883L17.9984 20.0542L17.9984 15.5152L17.9984 10.2857Z" fill="#000515"/>
<path d="M18.0769 20.982L18.0872 20.9678L21.4397 18.7391L18.0769 24.0713L18.0769 20.982Z" fill="#000515" stroke="#000515" stroke-width="0.25"/>
<path d="M17.9984 24.4286L17.9984 20.8762L14.1429 18.3116L17.9984 24.4286Z" fill="#000515"/>
<path d="M17.9983 20.0541L21.8537 17.4883L17.9983 15.5152L17.9983 20.0541Z" fill="#000515"/>
<path d="M17.8733 15.7196L17.8733 19.8208L14.3897 17.5024L17.8733 15.7196Z" fill="#000515" stroke="#000515" stroke-width="0.25"/>
</g>
<defs>
<clipPath id="clip0_2304_7780">
<rect width="36" height="36" fill="white"/>
</clipPath>
</defs>
</svg>
