<svg width="28" height="28" viewBox="0 0 28 28" fill="none" xmlns="http://www.w3.org/2000/svg">
<g clip-path="url(#clip0_1637_3463)">
<path d="M27.5761 17.3884C25.7062 24.8885 18.1099 29.4529 10.6089 27.5826C3.11107 25.7127 -1.45338 18.116 0.417373 10.6163C2.28637 3.11541 9.8827 -1.44946 17.3814 0.420413C24.8819 2.29029 29.4459 9.88791 27.5761 17.3884Z" fill="white"/>
<path d="M14.0002 4.41699L13.8691 4.84985V17.4103L14.0002 17.5374L19.9984 14.091L14.0002 4.41699Z" fill="#343434"/>
<path d="M13.9982 4.41699L8 14.091L13.9982 17.5374V11.441V4.41699Z" fill="#8C8C8C"/>
<path d="M13.9997 18.6414L13.9258 18.7289V23.2032L13.9997 23.4128L20.0014 15.1968L13.9997 18.6414Z" fill="#3C3C3B"/>
<path d="M13.9982 23.4128V18.6414L8 15.1968L13.9982 23.4128Z" fill="#8C8C8C"/>
<path d="M13.998 17.5373L19.9961 14.091L13.998 11.4409V17.5373Z" fill="#141414"/>
<path d="M8 14.091L13.9981 17.5373V11.4409L8 14.091Z" fill="#393939"/>
</g>
<defs>
<clipPath id="clip0_1637_3463">
<rect width="28" height="28" fill="white"/>
</clipPath>
</defs>
</svg>
