<svg width="24" height="24" viewBox="0 0 24 24" fill="none" xmlns="http://www.w3.org/2000/svg">
<path d="M3.75 8.11644L11.5117 3.77325C11.8151 3.60347 12.1849 3.60347 12.4883 3.77325L20.25 8.11644V16.2422C20.25 16.5594 20.0995 16.8578 19.8444 17.0464L12.467 22.5L4.19914 17.043C3.91873 16.8579 3.75 16.5444 3.75 16.2084V8.11644Z" fill="white"/>
<path d="M3.75 8.11644L11.5117 3.77325C11.8151 3.60347 12.1849 3.60347 12.4883 3.77325L20.25 8.11644M3.75 8.11644L12.467 13.5822M3.75 8.11644V16.2084C3.75 16.5444 3.91873 16.8579 4.19914 17.043L12.467 22.5M20.25 8.11644L12.467 13.5822M20.25 8.11644V16.2422C20.25 16.5594 20.0995 16.8578 19.8444 17.0464L12.467 22.5M12.467 13.5822V22.5" stroke="black" stroke-width="0.5"/>
</svg>
