<svg width="36" height="36" viewBox="0 0 36 36" fill="none" xmlns="http://www.w3.org/2000/svg">
<rect x="0.5" y="0.5" width="35" height="35" rx="17.5" fill="white" stroke="#000515"/>
<path d="M19.5246 16.5332V14.737H23.7282V12H12.2816V14.737H16.4858V16.5318C13.069 16.6852 10.5 17.3464 10.5 18.1385C10.5 18.9306 13.0703 19.5919 16.4858 19.7462V25.5H19.5256V19.7457C22.9362 19.5919 25.5 18.9311 25.5 18.1397C25.5 17.3483 22.9362 16.6876 19.5256 16.5337M19.5256 19.2584V19.2569C19.4398 19.2622 18.9992 19.2881 18.018 19.2881C17.2336 19.2881 16.6817 19.2663 16.4872 19.2564V19.2588C13.4687 19.1282 11.2155 18.6145 11.2155 17.9999C11.2155 17.3853 13.4689 16.8723 16.4872 16.7414V18.7471C16.685 18.7604 17.2504 18.793 18.0309 18.793C18.9683 18.793 19.4396 18.7548 19.5261 18.7471V16.7414C22.5388 16.8726 24.7868 17.3867 24.7868 17.9992C24.7868 18.6116 22.5378 19.126 19.5261 19.2572" fill="#000515"/>
</svg>
