<svg width="29" height="28" viewBox="0 0 29 28" fill="none" xmlns="http://www.w3.org/2000/svg">
<path d="M14.002 28C21.7339 28 28.002 21.732 28.002 14C28.002 6.26801 21.7339 0 14.002 0C6.26997 0 0.00195312 6.26801 0.00195312 14C0.00195312 21.732 6.26997 28 14.002 28Z" fill="#26A17B"/>
<path d="M15.4937 15.292V15.2898C15.397 15.2965 14.8973 15.3258 13.7854 15.3258C12.8963 15.3258 12.2728 15.301 12.0523 15.2898V15.292C8.63329 15.1412 6.08313 14.547 6.08313 13.8335C6.08313 13.1222 8.63554 12.5258 12.0523 12.375V14.7C12.2751 14.7158 12.9166 14.7541 13.8011 14.7541C14.8635 14.7541 15.3947 14.709 15.4937 14.7V12.3772C18.906 12.5303 21.4494 13.1245 21.4494 13.8357C21.4494 14.547 18.9037 15.1412 15.4937 15.2943V15.292ZM15.4937 12.1364V10.0566H20.2542V6.88525H7.29406V10.0566H12.0545V12.1364C8.18538 12.3142 5.27734 13.0795 5.27734 13.9978C5.27734 14.9161 8.18763 15.6814 12.0545 15.8615V22.5283H15.496V15.8615C19.3584 15.6836 22.2619 14.9184 22.2619 14C22.2619 13.084 19.3584 12.3164 15.496 12.1386" fill="white"/>
</svg>
