<svg width="28" height="28" viewBox="0 0 28 28" fill="none" xmlns="http://www.w3.org/2000/svg">
<path d="M14 22.1667C18.5104 22.1667 22.1667 18.5104 22.1667 14C22.1667 9.48972 18.5104 5.83337 14 5.83337C9.48972 5.83337 5.83337 9.48972 5.83337 14C5.83337 18.5104 9.48972 22.1667 14 22.1667Z" stroke="#9A1FA1" stroke-linecap="round" stroke-linejoin="round"/>
<path d="M14 10.5V14L15.75 15.75" stroke="#9A1FA1" stroke-linecap="round" stroke-linejoin="round"/>
<path d="M19.2617 20.2416L18.8534 24.71C18.8008 25.2917 18.5319 25.8326 18.0999 26.2257C17.6679 26.6189 17.1041 26.8357 16.52 26.8333H11.4684C10.8842 26.8357 10.3205 26.6189 9.88846 26.2257C9.45644 25.8326 9.18758 25.2917 9.13502 24.71L8.72668 20.2416M8.73835 7.75831L9.14668 3.28998C9.19907 2.71024 9.46627 2.17101 9.89582 1.77816C10.3254 1.3853 10.8862 1.16719 11.4684 1.16665H16.5434C17.1275 1.16428 17.6912 1.38108 18.1232 1.77421C18.5553 2.16735 18.8241 2.70823 18.8767 3.28998L19.285 7.75831" stroke="#9A1FA1" stroke-linecap="round" stroke-linejoin="round"/>
</svg>
