<svg width="90" height="90" viewBox="0 0 90 90" fill="none" xmlns="http://www.w3.org/2000/svg">
<g filter="url(#filter0_b_3311_13570)">
<circle cx="45" cy="45" r="45" fill="white"/>
<circle cx="45" cy="45" r="44" stroke="#000515" stroke-width="2"/>
</g>
<circle cx="45" cy="45" r="19.9375" fill="#140D0D"/>
<path fill-rule="evenodd" clip-rule="evenodd" d="M74 45C74 61.0164 61.0164 74 45 74C28.9837 74 16 61.0164 16 45C16 28.9837 28.9837 16 45 16C61.0164 16 74 28.9837 74 45ZM36.7822 56.5405H31.1541C29.9715 56.5405 29.3873 56.5405 29.0312 56.3127C28.6464 56.0632 28.4113 55.6501 28.3828 55.194C28.3615 54.7739 28.6536 54.2608 29.2377 53.2349L43.1342 28.7405C43.7255 27.7004 44.0247 27.1803 44.4023 26.9879C44.8083 26.7814 45.2928 26.7814 45.6989 26.9879C46.0765 27.1803 46.3757 27.7004 46.967 28.7405L49.8238 33.7274L49.8384 33.7529C50.477 34.8687 50.8009 35.4346 50.9423 36.0285C51.099 36.6768 51.099 37.3607 50.9423 38.009C50.7998 38.6074 50.4792 39.1774 49.8309 40.3101L42.5314 53.2135L42.5126 53.2466C41.8697 54.3716 41.5439 54.9419 41.0924 55.372C40.6008 55.8424 40.0095 56.1841 39.3612 56.3768C38.7699 56.5405 38.1073 56.5405 36.7822 56.5405ZM50.995 56.5405H59.0594C60.2491 56.5405 60.8477 56.5405 61.2041 56.3058C61.5887 56.0563 61.8308 55.6358 61.8524 55.1801C61.8729 54.7735 61.5872 54.2804 61.0272 53.3141C61.0079 53.2812 60.9886 53.2477 60.9689 53.2137L56.9294 46.3033L56.8834 46.2255C56.3158 45.2656 56.0293 44.7808 55.6613 44.5935C55.2554 44.3868 54.7778 44.3868 54.3719 44.5935C54.0014 44.7858 53.7022 45.2916 53.1109 46.3104L49.0857 53.2208L49.0719 53.2446C48.4827 54.2617 48.1882 54.77 48.2095 55.1871C48.238 55.6431 48.473 56.0632 48.8577 56.3127C49.2069 56.5405 49.8053 56.5405 50.995 56.5405Z" fill="white"/>
<defs>
<filter id="filter0_b_3311_13570" x="-22" y="-22" width="134" height="134" filterUnits="userSpaceOnUse" color-interpolation-filters="sRGB">
<feFlood flood-opacity="0" result="BackgroundImageFix"/>
<feGaussianBlur in="BackgroundImageFix" stdDeviation="11"/>
<feComposite in2="SourceAlpha" operator="in" result="effect1_backgroundBlur_3311_13570"/>
<feBlend mode="normal" in="SourceGraphic" in2="effect1_backgroundBlur_3311_13570" result="shape"/>
</filter>
</defs>
</svg>
