<svg width="143" height="45" viewBox="0 0 143 45" fill="none" xmlns="http://www.w3.org/2000/svg">
<path d="M53.6475 30.8716H54.2008L56.5931 34.4614C56.7009 34.6261 56.8059 34.7907 56.9081 34.9554C57.0159 35.12 57.1181 35.2846 57.2145 35.4493H57.2316C57.2202 35.2317 57.2117 35.0171 57.206 34.8054C57.206 34.5879 57.206 34.3703 57.206 34.1527V30.8716H57.802V36.4283H57.2486L54.9074 32.9444C54.7882 32.768 54.6691 32.5798 54.5499 32.3799C54.4364 32.1741 54.3285 31.9712 54.2264 31.7713H54.2093C54.2207 32.0359 54.2292 32.2976 54.2349 32.5563C54.2406 32.8091 54.2434 33.0678 54.2434 33.3325V36.4283H53.6475V30.8716Z" fill="#464646"/>
<path d="M62.2158 34.3997H59.3553V34.4791C59.3553 34.9671 59.483 35.3464 59.7384 35.6169C59.9938 35.8874 60.3429 36.0226 60.7856 36.0226C60.9842 36.0226 61.1687 36.0079 61.3389 35.9785C61.5092 35.9432 61.6851 35.8874 61.8667 35.8109L61.9944 36.2696C61.8355 36.3401 61.6482 36.396 61.4326 36.4372C61.2226 36.4842 60.9984 36.5077 60.76 36.5077C60.4819 36.5077 60.2208 36.4666 59.9768 36.3842C59.7327 36.3019 59.5171 36.1755 59.3298 36.005C59.1482 35.8286 59.0034 35.6051 58.8956 35.3346C58.7878 35.0641 58.7338 34.7407 58.7338 34.3644C58.7338 34.041 58.7792 33.747 58.8701 33.4824C58.9609 33.2178 59.0857 32.9943 59.2446 32.8121C59.4092 32.6239 59.605 32.4798 59.8321 32.3799C60.0648 32.2799 60.323 32.2299 60.6068 32.2299C60.8508 32.2299 61.0693 32.274 61.2623 32.3622C61.4609 32.4446 61.6312 32.5651 61.7731 32.7239C61.915 32.8826 62.0228 33.0737 62.0966 33.2972C62.1761 33.5206 62.2158 33.7676 62.2158 34.0381V34.3997ZM61.6028 33.941C61.6028 33.7764 61.583 33.6206 61.5432 33.4736C61.5035 33.3207 61.4411 33.1884 61.3559 33.0767C61.2765 32.9591 61.1715 32.8679 61.041 32.8032C60.9104 32.7327 60.7543 32.6974 60.5727 32.6974C60.2435 32.6974 59.9711 32.8091 59.7554 33.0326C59.5454 33.256 59.4177 33.5618 59.3723 33.9499L61.6028 33.941Z" fill="#464646"/>
<path d="M65.1468 32.7503H63.8868V35.317C63.8868 35.5581 63.9407 35.7198 64.0485 35.8021C64.1621 35.8844 64.3096 35.9256 64.4912 35.9256C64.6331 35.9256 64.7722 35.9109 64.9084 35.8815C65.0446 35.8521 65.1638 35.8197 65.266 35.7845L65.3596 36.2519C65.2461 36.299 65.1042 36.3401 64.9339 36.3754C64.7637 36.4107 64.5792 36.4283 64.3806 36.4283C63.6541 36.4283 63.2909 36.0843 63.2909 35.3964V32.7503H62.6353V32.2829H63.2909V30.9598H63.8868V32.2829H65.1468V32.7503Z" fill="#464646"/>
<path d="M65.6328 32.2829H66.2543L66.9439 34.8936L67.1397 35.9344H67.1652L67.4036 34.8936L68.1357 32.2829H68.7742L69.4979 34.8936L69.7362 35.9344H69.7618L69.9916 34.8936L70.6727 32.2829H71.2686L70.0938 36.4283H69.4127L68.6891 33.7999L68.4507 32.7327L68.2039 33.7999L67.4632 36.4283H66.8247L65.6328 32.2829Z" fill="#464646"/>
<path d="M75.3352 34.3115C75.3352 34.6584 75.2869 34.9701 75.1904 35.2464C75.0939 35.5169 74.9606 35.7462 74.7903 35.9344C74.62 36.1226 74.4186 36.2666 74.1859 36.3666C73.9588 36.4607 73.7148 36.5077 73.4537 36.5077C73.187 36.5077 72.9401 36.4636 72.7131 36.3754C72.486 36.2813 72.2902 36.1461 72.1256 35.9697C71.961 35.7874 71.8305 35.5669 71.734 35.3082C71.6375 35.0436 71.5893 34.7407 71.5893 34.3997C71.5893 34.0528 71.6375 33.7441 71.734 33.4736C71.8362 33.2031 71.9724 32.9767 72.1427 32.7944C72.3129 32.6063 72.5116 32.4651 72.7386 32.3711C72.9713 32.277 73.221 32.2299 73.4878 32.2299C73.7488 32.2299 73.9929 32.274 74.2199 32.3622C74.4469 32.4504 74.6427 32.5827 74.8073 32.7591C74.9719 32.9355 75.0996 33.1531 75.1904 33.4118C75.2869 33.6706 75.3352 33.9704 75.3352 34.3115ZM74.7137 34.3556C74.7137 34.0675 74.6768 33.8205 74.603 33.6147C74.5349 33.403 74.4413 33.2325 74.3221 33.1031C74.2086 32.9679 74.0752 32.8709 73.9219 32.8121C73.7744 32.7474 73.6211 32.715 73.4622 32.715C73.3033 32.715 73.1472 32.7444 72.994 32.8032C72.8464 32.862 72.7131 32.9561 72.5939 33.0855C72.4804 33.2149 72.3867 33.3854 72.3129 33.5971C72.2448 33.8029 72.2108 34.0557 72.2108 34.3556C72.2108 34.6555 72.2448 34.9113 72.3129 35.1229C72.3867 35.3346 72.4832 35.5081 72.6024 35.6433C72.7216 35.7727 72.8578 35.8697 73.011 35.9344C73.1643 35.9932 73.3203 36.0226 73.4793 36.0226C73.6382 36.0226 73.7914 35.9961 73.939 35.9432C74.0865 35.8844 74.2171 35.7903 74.3306 35.661C74.4498 35.5257 74.5434 35.3523 74.6115 35.1406C74.6796 34.9289 74.7137 34.6672 74.7137 34.3556Z" fill="#464646"/>
<path d="M76.1825 36.4283V32.2829H76.6082L76.7188 33.1119C76.8153 32.8473 76.9771 32.6357 77.2041 32.4769C77.4311 32.3123 77.6894 32.2299 77.9788 32.2299C78.1207 32.2299 78.2427 32.2417 78.3449 32.2652C78.447 32.2887 78.5293 32.3152 78.5918 32.3446L78.4811 32.8914C78.413 32.8562 78.3364 32.8268 78.2512 32.8032C78.1661 32.7797 78.0668 32.768 77.9533 32.768C77.7887 32.768 77.6354 32.8003 77.4936 32.865C77.3517 32.9238 77.2268 33.012 77.119 33.1296C77.0111 33.2472 76.926 33.3971 76.8636 33.5794C76.8011 33.7617 76.7699 33.9704 76.7699 34.2056V36.4283H76.1825Z" fill="#464646"/>
<path d="M79.8201 34.9113V36.4283H79.2242V30.166H79.8201V34.2233L81.6249 32.2829H82.3656L80.7055 34.0292L82.4422 36.4283H81.7356L80.3139 34.3997L79.8201 34.9113Z" fill="#464646"/>
<path d="M61.1183 22.5162C61.8256 22.5162 62.4199 22.456 62.9014 22.3357C63.3829 22.2155 63.8193 22.0501 64.2105 21.8396L64.7974 23.9144C64.376 24.1249 63.8419 24.3053 63.1948 24.4556C62.5478 24.606 61.7578 24.6812 60.8249 24.6812C59.8017 24.6812 58.8462 24.5158 57.9585 24.185C57.0857 23.8543 56.3258 23.3807 55.6788 22.7642C55.0468 22.1328 54.5503 21.366 54.1892 20.4639C53.828 19.5468 53.6475 18.5094 53.6475 17.3517C53.6475 16.2241 53.8205 15.2092 54.1666 14.3071C54.5127 13.39 55.0017 12.6157 55.6337 11.9842C56.2807 11.3528 57.0481 10.8717 57.9359 10.5409C58.8237 10.1951 59.8092 10.0222 60.8926 10.0222C61.8557 10.0222 62.6456 10.1049 63.2626 10.2703C63.8795 10.4357 64.4061 10.6311 64.8425 10.8566L64.2105 12.9314C63.7591 12.7059 63.3002 12.5255 62.8337 12.3902C62.3673 12.2549 61.8256 12.1872 61.2086 12.1872C60.5766 12.1872 59.9748 12.2849 59.403 12.4804C58.8462 12.6608 58.3572 12.9615 57.9359 13.3825C57.5296 13.7884 57.1986 14.3222 56.9428 14.9837C56.702 15.6302 56.5816 16.4195 56.5816 17.3517C56.5816 18.2538 56.702 19.0356 56.9428 19.6971C57.1835 20.3436 57.507 20.8774 57.9133 21.2983C58.3196 21.7193 58.7936 22.0275 59.3353 22.223C59.892 22.4184 60.4864 22.5162 61.1183 22.5162Z" fill="#000515"/>
<path d="M76.4861 19.0206C76.4861 19.9076 76.3432 20.7045 76.0573 21.4111C75.7864 22.1177 75.4027 22.7116 74.9062 23.1927C74.4096 23.6738 73.8303 24.0422 73.1682 24.2978C72.5062 24.5534 71.7914 24.6812 71.024 24.6812C70.2566 24.6812 69.5419 24.5609 68.8798 24.3203C68.2328 24.0798 67.6685 23.734 67.187 23.2829C66.7055 22.8168 66.3293 22.2455 66.0585 21.569C65.7876 20.8924 65.6522 20.1181 65.6522 19.2461C65.6522 18.344 65.7876 17.5396 66.0585 16.833C66.3444 16.1113 66.7356 15.5099 67.2322 15.0288C67.7287 14.5477 68.308 14.1793 68.9701 13.9237C69.6322 13.6681 70.3469 13.5404 71.1143 13.5404C71.8817 13.5404 72.5889 13.6606 73.236 13.9012C73.898 14.1267 74.4698 14.4725 74.9513 14.9386C75.4328 15.4047 75.809 15.976 76.0799 16.6526C76.3507 17.3291 76.4861 18.1185 76.4861 19.0206ZM73.7325 19.1333C73.7325 18.4868 73.6573 17.938 73.5068 17.487C73.3563 17.0209 73.1532 16.645 72.8974 16.3594C72.6566 16.0737 72.3707 15.8632 72.0397 15.7279C71.7237 15.5926 71.3927 15.525 71.0466 15.525C70.7005 15.525 70.3695 15.5851 70.0535 15.7054C69.7375 15.8106 69.4591 16.0061 69.2184 16.2917C68.9776 16.5624 68.782 16.9307 68.6315 17.3968C68.4811 17.8629 68.4058 18.4417 68.4058 19.1333C68.4058 19.7648 68.4811 20.306 68.6315 20.7571C68.782 21.1931 68.9776 21.5614 69.2184 21.8621C69.4742 22.1478 69.7601 22.3583 70.0761 22.4936C70.4071 22.6289 70.7457 22.6966 71.0917 22.6966C71.4228 22.6966 71.7463 22.6364 72.0623 22.5162C72.3933 22.3959 72.6792 22.2004 72.92 21.9298C73.1607 21.6592 73.3563 21.2983 73.5068 20.8473C73.6573 20.3812 73.7325 19.8099 73.7325 19.1333Z" fill="#000515"/>
<path d="M78.5572 24.4556V8.39844H81.1754V24.4556H78.5572Z" fill="#000515"/>
<path d="M83.9521 24.4556V8.39844H86.5703V24.4556H83.9521Z" fill="#000515"/>
<path d="M89.4373 14.6905C90.0993 14.3297 90.7689 14.0515 91.4461 13.8561C92.1232 13.6456 92.868 13.5404 93.6805 13.5404C94.3125 13.5404 94.8843 13.6155 95.3959 13.7659C95.9075 13.9012 96.3514 14.1267 96.7276 14.4424C97.1038 14.7582 97.3897 15.1716 97.5853 15.6828C97.7959 16.179 97.9013 16.7879 97.9013 17.5095V24.4556H95.8022L95.5313 23.328H95.4636C94.6962 24.2301 93.6053 24.6812 92.1909 24.6812C91.0624 24.6812 90.1821 24.388 89.5501 23.8016C88.9181 23.2002 88.6022 22.4259 88.6022 21.4787C88.6022 20.8774 88.7301 20.3587 88.9859 19.9226C89.2417 19.4866 89.5877 19.1258 90.0241 18.8401C90.4755 18.5545 91.0097 18.344 91.6266 18.2087C92.2435 18.0583 92.9131 17.9831 93.6354 17.9831H95.2154V17.2389C95.2154 16.6526 95.0423 16.2391 94.6962 15.9985C94.3501 15.743 93.8837 15.6152 93.2968 15.6152C92.8755 15.6152 92.4241 15.6828 91.9426 15.8181C91.4762 15.9534 90.957 16.1865 90.3852 16.5173L89.4373 14.6905ZM95.2379 19.6746L94.0191 19.7197C93.026 19.7497 92.3338 19.9226 91.9426 20.2384C91.5514 20.5391 91.3558 20.9074 91.3558 21.3434C91.3558 21.8997 91.5213 22.2756 91.8523 22.471C92.1834 22.6665 92.5671 22.7642 93.0034 22.7642C93.4398 22.7642 93.8536 22.659 94.2448 22.4485C94.6511 22.223 94.9821 21.9148 95.2379 21.5239V19.6746Z" fill="#000515"/>
<path d="M106.699 15.6828H103.742V21.0503C103.742 21.5614 103.862 21.9148 104.103 22.1102C104.359 22.2906 104.682 22.3808 105.073 22.3808C105.374 22.3808 105.69 22.3508 106.021 22.2906C106.352 22.2305 106.631 22.1478 106.857 22.0426L107.263 23.9369C106.977 24.0572 106.586 24.1775 106.089 24.2978C105.608 24.403 105.088 24.4556 104.532 24.4556C103.313 24.4556 102.433 24.2076 101.891 23.7114C101.364 23.2153 101.101 22.471 101.101 21.4787V15.6828H99.4759V13.7433H101.101V10.4056H103.742V13.7433H106.699V15.6828Z" fill="#000515"/>
<path d="M118.209 19.6971H110.919V19.7873C110.919 20.7646 111.22 21.4938 111.822 21.9749C112.438 22.456 113.243 22.6966 114.237 22.6966C114.823 22.6966 115.343 22.6439 115.794 22.5387C116.26 22.4335 116.704 22.2906 117.126 22.1102L117.645 23.982C117.208 24.1775 116.689 24.3429 116.087 24.4782C115.485 24.6135 114.786 24.6812 113.988 24.6812C113.191 24.6812 112.438 24.5759 111.731 24.3654C111.039 24.1549 110.43 23.8242 109.903 23.3731C109.376 22.9221 108.955 22.3508 108.639 21.6592C108.338 20.9676 108.188 20.1406 108.188 19.1784C108.188 18.3365 108.316 17.5697 108.571 16.8781C108.827 16.1865 109.188 15.5926 109.655 15.0965C110.121 14.6003 110.685 14.2169 111.348 13.9463C112.01 13.6757 112.739 13.5404 113.537 13.5404C114.966 13.5404 116.102 13.9764 116.945 14.8484C117.788 15.7204 118.209 16.9307 118.209 18.4793V19.6971ZM115.478 17.8478C115.478 17.5321 115.44 17.2314 115.365 16.9457C115.29 16.645 115.169 16.3819 115.004 16.1564C114.838 15.9309 114.62 15.758 114.349 15.6377C114.094 15.5024 113.785 15.4347 113.424 15.4347C112.747 15.4347 112.19 15.6603 111.754 16.1113C111.317 16.5624 111.054 17.1562 110.964 17.8929L115.478 17.8478Z" fill="#000515"/>
<path d="M120.165 24.4556V13.7433H122.219L122.558 15.7505C122.814 15.134 123.22 14.6153 123.777 14.1944C124.333 13.7584 125.025 13.5404 125.853 13.5404C126.214 13.5404 126.53 13.5779 126.801 13.6531C127.072 13.7283 127.298 13.811 127.478 13.9012L127.027 16.0662C126.861 15.976 126.658 15.9008 126.417 15.8407C126.177 15.7655 125.883 15.7279 125.537 15.7279C124.77 15.7279 124.123 15.991 123.596 16.5173C123.069 17.0435 122.806 17.8779 122.806 19.0206V24.4556H120.165Z" fill="#000515"/>
<path d="M128.452 14.6905C129.114 14.3297 129.784 14.0515 130.461 13.8561C131.138 13.6456 131.883 13.5404 132.695 13.5404C133.327 13.5404 133.899 13.6155 134.41 13.7659C134.922 13.9012 135.366 14.1267 135.742 14.4424C136.118 14.7582 136.404 15.1716 136.6 15.6828C136.811 16.179 136.916 16.7879 136.916 17.5095V24.4556H134.817L134.546 23.328H134.478C133.711 24.2301 132.62 24.6812 131.205 24.6812C130.077 24.6812 129.197 24.388 128.565 23.8016C127.933 23.2002 127.617 22.4259 127.617 21.4787C127.617 20.8774 127.745 20.3587 128 19.9226C128.256 19.4866 128.602 19.1258 129.039 18.8401C129.49 18.5545 130.024 18.344 130.641 18.2087C131.258 18.0583 131.928 17.9831 132.65 17.9831H134.23V17.2389C134.23 16.6526 134.057 16.2391 133.711 15.9985C133.365 15.743 132.898 15.6152 132.311 15.6152C131.89 15.6152 131.439 15.6828 130.957 15.8181C130.491 15.9534 129.972 16.1865 129.4 16.5173L128.452 14.6905ZM134.253 19.6746L133.034 19.7197C132.041 19.7497 131.348 19.9226 130.957 20.2384C130.566 20.5391 130.37 20.9074 130.37 21.3434C130.37 21.8997 130.536 22.2756 130.867 22.471C131.198 22.6665 131.582 22.7642 132.018 22.7642C132.454 22.7642 132.868 22.659 133.259 22.4485C133.666 22.223 133.997 21.9148 134.253 21.5239V19.6746Z" fill="#000515"/>
<path d="M139.642 24.4556V8.39844H142.26V24.4556H139.642Z" fill="#000515"/>
<path fill-rule="evenodd" clip-rule="evenodd" d="M42.3193 35.9645C39.1786 37.5013 35.6479 38.364 31.9157 38.364C18.8267 38.364 8.21596 27.7533 8.21596 14.6643C8.21596 9.12755 10.1146 4.03428 13.2962 0C5.42238 3.85301 0 11.9434 0 21.3002C0 34.3893 10.6108 45 23.6998 45C31.2521 45 37.9793 41.4674 42.3193 35.9645Z" fill="#000515"/>
<path fill-rule="evenodd" clip-rule="evenodd" d="M21.1712 6.24141C22.8563 5.41676 24.7507 4.95385 26.7533 4.95385C33.7761 4.95385 39.4691 10.6469 39.4691 17.6697C39.4691 20.6401 38.4506 23.3726 36.7437 25.5371C40.9682 23.4698 43.8774 19.1291 43.8774 14.1089C43.8774 7.0861 38.1844 1.39303 31.1616 1.39303C27.1093 1.39303 23.4997 3.2886 21.1712 6.24141Z" fill="#000515"/>
<path fill-rule="evenodd" clip-rule="evenodd" d="M31.7143 30.7869C31.0787 30.8866 30.4086 30.9383 29.7036 30.9383C18.8017 32.0443 13.4298 24.1356 13.4298 16.7184C13.4298 16.1575 13.4655 15.61 13.5347 15.0771C12.9572 16.5299 12.6396 18.1142 12.6396 19.7727C12.6396 26.7955 18.3327 32.4886 25.3555 32.4886C27.672 32.4886 29.8438 31.8691 31.7143 30.7869Z" fill="#000515"/>
</svg>
