<svg width="127" height="127" viewBox="0 0 127 127" fill="none" xmlns="http://www.w3.org/2000/svg">
<path fill-rule="evenodd" clip-rule="evenodd" d="M11 9C8.79086 9 7 10.7909 7 13V61C7 63.2091 8.79086 65 11 65H54.85L62.5 74L70.15 65H115C117.209 65 119 63.2091 119 61V13C119 10.7909 117.209 9 115 9H11Z" fill="white"/>
<path d="M54.85 65L55.231 64.6762L55.0812 64.5H54.85V65ZM62.5 74L62.119 74.3238L62.5 74.772L62.881 74.3238L62.5 74ZM70.15 65V64.5H69.9188L69.769 64.6762L70.15 65ZM7.5 13C7.5 11.067 9.067 9.5 11 9.5V8.5C8.51472 8.5 6.5 10.5147 6.5 13H7.5ZM7.5 61V13H6.5V61H7.5ZM11 64.5C9.067 64.5 7.5 62.933 7.5 61H6.5C6.5 63.4853 8.51472 65.5 11 65.5V64.5ZM54.85 64.5H11V65.5H54.85V64.5ZM54.469 65.3238L62.119 74.3238L62.881 73.6762L55.231 64.6762L54.469 65.3238ZM62.881 74.3238L70.531 65.3238L69.769 64.6762L62.119 73.6762L62.881 74.3238ZM115 64.5H70.15V65.5H115V64.5ZM118.5 61C118.5 62.933 116.933 64.5 115 64.5V65.5C117.485 65.5 119.5 63.4853 119.5 61H118.5ZM118.5 13V61H119.5V13H118.5ZM115 9.5C116.933 9.5 118.5 11.067 118.5 13H119.5C119.5 10.5147 117.485 8.5 115 8.5V9.5ZM11 9.5H115V8.5H11V9.5Z" fill="black"/>
<g clip-path="url(#clip0_3154_13749)">
<path d="M51.6667 39.5001V52.0001C51.6667 52.4421 51.4911 52.866 51.1785 53.1786C50.866 53.4912 50.442 53.6667 50 53.6667H48.3333C47.8913 53.6667 47.4674 53.4912 47.1548 53.1786C46.8423 52.866 46.6667 52.4421 46.6667 52.0001V50.3334H23.3333V52.0001C23.3333 52.4421 23.1577 52.866 22.8452 53.1786C22.5326 53.4912 22.1087 53.6667 21.6667 53.6667H20C19.558 53.6667 19.134 53.4912 18.8215 53.1786C18.5089 52.866 18.3333 52.4421 18.3333 52.0001V39.5001L16.2617 38.9834C15.9013 38.8931 15.5813 38.685 15.3528 38.3921C15.1242 38.0992 15 37.7383 15 37.3667V36.1667C15 35.9457 15.0878 35.7338 15.2441 35.5775C15.4004 35.4212 15.6123 35.3334 15.8333 35.3334H18.9583L22.5217 25.8301C22.7599 25.1946 23.1864 24.6469 23.7443 24.2603C24.3021 23.8738 24.9646 23.6667 25.6433 23.6667H44.3567C45.0354 23.6667 45.6979 23.8738 46.2557 24.2603C46.8136 24.6469 47.2401 25.1946 47.4783 25.8301L51.0417 35.3334H54.1667C54.3877 35.3334 54.5996 35.4212 54.7559 35.5775C54.9122 35.7338 55 35.9457 55 36.1667V37.3667C55 37.7383 54.8758 38.0992 54.6472 38.3921C54.4187 38.685 54.0987 38.8931 53.7383 38.9834L51.6667 39.5001ZM21.6667 42.0001V45.3334C21.6667 45.7754 21.8423 46.1994 22.1548 46.5119C22.4674 46.8245 22.8913 47.0001 23.3333 47.0001H28.7417C28.8856 46.9999 29.027 46.9624 29.1521 46.8913C29.2772 46.8202 29.3818 46.7179 29.4556 46.5943C29.5294 46.4708 29.57 46.3303 29.5734 46.1864C29.5768 46.0426 29.5429 45.9003 29.475 45.7734C28.1333 43.2567 25.53 42.0001 21.6667 42.0001ZM48.3333 42.0001C44.4717 42.0001 41.8683 43.2584 40.5233 45.7734C40.4553 45.9004 40.4214 46.0429 40.4249 46.1869C40.4284 46.3309 40.4691 46.4715 40.5432 46.5951C40.6172 46.7186 40.722 46.8209 40.8473 46.8919C40.9727 46.9629 41.1143 47.0001 41.2583 47.0001H46.6667C47.1087 47.0001 47.5326 46.8245 47.8452 46.5119C48.1577 46.1994 48.3333 45.7754 48.3333 45.3334V42.0001ZM25 27.0001L22.3983 34.8067C22.3149 35.0572 22.2922 35.3238 22.332 35.5847C22.3718 35.8457 22.473 36.0934 22.6273 36.3076C22.7816 36.5217 22.9845 36.6962 23.2194 36.8166C23.4543 36.937 23.7144 36.9999 23.9783 37.0001H46.0217C46.2856 36.9999 46.5457 36.937 46.7806 36.8166C47.0155 36.6962 47.2184 36.5217 47.3727 36.3076C47.527 36.0934 47.6282 35.8457 47.668 35.5847C47.7078 35.3238 47.6851 35.0572 47.6017 34.8067L45 27.0001H25Z" fill="black"/>
</g>
<g clip-path="url(#clip1_3154_13749)">
<path d="M79.778 36.638V36.138H79.278H76.1395L90.4383 23.1394L90.4385 23.1392C90.6184 22.9755 90.8529 22.8848 91.0962 22.8848C91.3395 22.8848 91.574 22.9755 91.7539 23.1392L91.7541 23.1394L106.053 36.138H102.914H102.414V36.638V49.9335C102.414 50.1927 102.311 50.4412 102.128 50.6245C101.945 50.8078 101.696 50.9107 101.437 50.9107H80.7553C80.4961 50.9107 80.2475 50.8078 80.0642 50.6245C79.881 50.4412 79.778 50.1927 79.778 49.9335V36.638Z" fill="#000515" stroke="#000515"/>
<rect x="88.6923" y="43.9231" width="4.61538" height="7.69231" fill="white"/>
</g>
<circle cx="63" cy="102" r="19.5" fill="white" stroke="#000515"/>
<path fill-rule="evenodd" clip-rule="evenodd" d="M69.6304 108.184C68.4212 108.775 67.0619 109.107 65.6249 109.107C60.5856 109.107 56.5005 105.022 56.5005 99.9831C56.5005 97.8515 57.2314 95.8906 58.4564 94.3374C55.425 95.8208 53.3374 98.9356 53.3374 102.538C53.3374 107.577 57.4225 111.662 62.4618 111.662C65.3695 111.662 67.9595 110.302 69.6304 108.184Z" fill="#000515"/>
<path fill-rule="evenodd" clip-rule="evenodd" d="M61.4884 96.74C62.1372 96.4225 62.8666 96.2443 63.6376 96.2443C66.3413 96.2443 68.5332 98.4361 68.5332 101.14C68.5332 102.283 68.1411 103.335 67.484 104.169C69.1104 103.373 70.2304 101.702 70.2304 99.7689C70.2304 97.0651 68.0386 94.8733 65.3348 94.8733C63.7746 94.8733 62.3849 95.6031 61.4884 96.74Z" fill="#000515"/>
<path fill-rule="evenodd" clip-rule="evenodd" d="M65.5476 106.19C65.3028 106.229 65.0447 106.249 64.7732 106.249C60.576 106.674 58.5078 103.63 58.5078 100.774C58.5078 100.558 58.5215 100.348 58.5481 100.143C58.3259 100.702 58.2037 101.312 58.2037 101.95C58.2037 104.654 60.3956 106.846 63.0993 106.846C63.9912 106.846 64.8274 106.607 65.5476 106.19Z" fill="#000515"/>
<defs>
<clipPath id="clip0_3154_13749">
<rect width="40" height="40" fill="white" transform="translate(15 17)"/>
</clipPath>
<clipPath id="clip1_3154_13749">
<rect width="40" height="40" fill="white" transform="translate(71 17)"/>
</clipPath>
</defs>
</svg>
