<svg width="90" height="90" viewBox="0 0 90 90" fill="none" xmlns="http://www.w3.org/2000/svg">
<g filter="url(#filter0_b_3311_13575)">
<circle cx="45" cy="45" r="45" fill="white"/>
<circle cx="45" cy="45" r="44" stroke="#000515" stroke-width="2"/>
</g>
<g clip-path="url(#clip0_3311_13575)">
<path d="M56.2292 37.0923C55.4271 36.6399 54.3958 36.6399 53.4792 37.0923L47.0625 40.8246L42.7083 43.1998L36.4062 46.9321C35.6042 47.3845 34.5729 47.3845 33.6563 46.9321L28.7292 43.9915C27.9271 43.5391 27.3542 42.6342 27.3542 41.6163V35.9613C27.3542 35.0565 27.8125 34.1517 28.7292 33.5862L33.6563 30.7586C34.4583 30.3062 35.4896 30.3062 36.4062 30.7586L41.3333 33.6993C42.1354 34.1517 42.7083 35.0565 42.7083 36.0744V39.8067L47.0625 37.3185V33.4731C47.0625 32.5682 46.6042 31.6634 45.6875 31.0979L36.5208 25.7822C35.7188 25.3298 34.6875 25.3298 33.7708 25.7822L24.375 31.211C23.4583 31.6634 23 32.5682 23 33.4731V44.1046C23 45.0094 23.4583 45.9142 24.375 46.4797L33.6563 51.7954C34.4583 52.2478 35.4896 52.2478 36.4062 51.7954L42.7083 48.1762L47.0625 45.688L53.3646 42.0687C54.1667 41.6163 55.1979 41.6163 56.1146 42.0687L61.0417 44.8963C61.8438 45.3487 62.4167 46.2535 62.4167 47.2714V52.9265C62.4167 53.8313 61.9583 54.7361 61.0417 55.3016L56.2292 58.1291C55.4271 58.5815 54.3958 58.5815 53.4792 58.1291L48.5521 55.3016C47.75 54.8492 47.1771 53.9444 47.1771 52.9265V49.3072L42.8229 51.7954V55.5278C42.8229 56.4326 43.2812 57.3374 44.1979 57.9029L53.4792 63.2187C54.2813 63.6711 55.3125 63.6711 56.2292 63.2187L65.5104 57.9029C66.3125 57.4505 66.8854 56.5457 66.8854 55.5278V44.7832C66.8854 43.8784 66.4271 42.9736 65.5104 42.408L56.2292 37.0923Z" fill="#000515"/>
</g>
<defs>
<filter id="filter0_b_3311_13575" x="-22" y="-22" width="134" height="134" filterUnits="userSpaceOnUse" color-interpolation-filters="sRGB">
<feFlood flood-opacity="0" result="BackgroundImageFix"/>
<feGaussianBlur in="BackgroundImageFix" stdDeviation="11"/>
<feComposite in2="SourceAlpha" operator="in" result="effect1_backgroundBlur_3311_13575"/>
<feBlend mode="normal" in="SourceGraphic" in2="effect1_backgroundBlur_3311_13575" result="shape"/>
</filter>
<clipPath id="clip0_3311_13575">
<rect width="44" height="37.8889" fill="white" transform="translate(23 25.5557)"/>
</clipPath>
</defs>
</svg>
