<svg width="162" height="356" viewBox="0 0 162 356" fill="none" xmlns="http://www.w3.org/2000/svg">
<path d="M127.85 354.48C128.115 354.402 128.267 354.124 128.189 353.859L126.925 349.541C126.847 349.276 126.569 349.124 126.304 349.202C126.039 349.279 125.887 349.557 125.965 349.822L127.089 353.661L123.251 354.785C122.986 354.863 122.834 355.14 122.911 355.405C122.989 355.67 123.267 355.822 123.532 355.745L127.85 354.48ZM127.95 353.561C127.046 353.067 126.149 352.573 125.257 352.079L124.772 352.953C125.666 353.449 126.565 353.944 127.47 354.439L127.95 353.561ZM119.972 349.107C118.233 348.116 116.515 347.123 114.82 346.129L114.314 346.992C116.013 347.988 117.734 348.983 119.477 349.976L119.972 349.107ZM109.799 343.144C108.11 342.125 106.444 341.106 104.801 340.085L104.273 340.934C105.92 341.957 107.59 342.979 109.283 344L109.799 343.144ZM99.6572 336.84C97.9679 335.757 96.3035 334.673 94.6639 333.588L94.112 334.422C95.7557 335.509 97.4242 336.596 99.1176 337.682L99.6572 336.84ZM89.8193 330.329C88.1804 329.209 86.5676 328.087 84.9807 326.965L84.4032 327.781C85.9946 328.907 87.6117 330.031 89.2549 331.155L89.8193 330.329ZM80.0637 323.423C78.4531 322.241 76.8705 321.059 75.3159 319.875L74.7101 320.671C76.2696 321.858 77.8568 323.044 79.4722 324.229L80.0637 323.423ZM70.7353 316.321C69.142 315.061 67.5798 313.8 66.0484 312.538L65.4125 313.31C66.9491 314.576 68.5165 315.841 70.115 317.105L70.7353 316.321ZM61.4652 308.68C59.9691 307.393 58.5046 306.105 57.0712 304.817L56.4027 305.56C57.8416 306.854 59.3116 308.146 60.8131 309.438L61.4652 308.68ZM52.7214 300.814C51.2415 299.42 49.7976 298.025 48.3892 296.63L47.6853 297.34C49.0999 298.742 50.5498 300.142 52.0357 301.542L52.7214 300.814ZM44.2697 292.441C42.8956 291.007 41.5584 289.572 40.2575 288.137L39.5166 288.809C40.8237 290.251 42.1672 291.692 43.5476 293.133L44.2697 292.441ZM36.2818 283.618C34.9962 282.111 33.7499 280.604 32.5425 279.097L31.7621 279.722C32.976 281.237 34.2288 282.752 35.5211 284.267L36.2818 283.618ZM28.9165 274.416C27.7069 272.799 26.5411 271.182 25.4185 269.566L24.5972 270.136C25.7266 271.762 26.8992 273.389 28.1158 275.015L28.9165 274.416ZM22.1796 264.717C21.0868 263.014 20.0411 261.312 19.0417 259.611L18.1794 260.117C19.1856 261.83 20.2382 263.544 21.338 265.257L22.1796 264.717ZM16.1503 254.451C15.2167 252.701 14.3312 250.952 13.4927 249.204L12.5911 249.636C13.4358 251.397 14.3278 253.159 15.268 254.921L16.1503 254.451ZM11.0324 243.765C10.2623 241.953 9.54186 240.143 8.87 238.335L7.93261 238.683C8.60988 240.506 9.33602 242.33 10.1121 244.156L11.0324 243.765ZM6.92383 232.679C6.32582 230.791 5.77975 228.906 5.28439 227.023L4.31731 227.278C4.81688 229.176 5.36755 231.078 5.97053 232.981L6.92383 232.679ZM3.92137 221.25C3.51499 219.308 3.16156 217.369 2.85974 215.434L1.87168 215.588C2.17615 217.54 2.53267 219.496 2.94257 221.455L3.92137 221.25ZM2.10096 209.572C1.89759 207.599 1.74678 205.631 1.6471 203.666L0.648382 203.717C0.748936 205.699 0.901071 207.684 1.10623 209.674L2.10096 209.572ZM1.50004 197.761C1.50163 195.782 1.5541 193.808 1.65597 191.839L0.65731 191.787C0.554567 193.773 0.501642 195.764 0.500038 197.76L1.50004 197.761ZM2.10869 185.943C2.30843 183.98 2.55634 182.022 2.85092 180.07L1.86211 179.92C1.56516 181.888 1.31523 183.862 1.11383 185.842L2.10869 185.943ZM3.87245 174.234C4.25686 172.304 4.686 170.38 5.15843 168.462L4.18745 168.223C3.71151 170.155 3.27909 172.094 2.89171 174.039L3.87245 174.234ZM6.70392 162.728C7.25553 160.844 7.84809 158.966 8.48018 157.096L7.53279 156.775C6.89641 158.659 6.29973 160.55 5.74419 162.448L6.70392 162.728ZM10.4936 151.505C11.1947 149.671 11.933 147.845 12.7071 146.026L11.787 145.634C11.0081 147.464 10.2652 149.302 9.55959 151.148L10.4936 151.505ZM15.1308 140.603C15.9643 138.823 16.8313 137.05 17.7307 135.286L16.8397 134.832C15.9355 136.606 15.0635 138.388 14.2252 140.179L15.1308 140.603ZM20.5101 130.043C21.4602 128.317 22.4405 126.599 23.4498 124.89L22.5887 124.382C21.5745 126.099 20.5892 127.826 19.6341 129.561L20.5101 130.043ZM26.5363 119.832C27.5889 118.16 28.6685 116.497 29.7738 114.844L28.9425 114.288C27.8322 115.949 26.7476 117.619 25.6901 119.299L26.5363 119.832ZM33.1259 109.966C34.2677 108.35 35.4334 106.742 36.622 105.144L35.8196 104.547C34.6262 106.152 33.4557 107.766 32.3091 109.39L33.1259 109.966ZM40.2072 100.439C41.423 98.8814 42.66 97.3329 43.9169 95.7941L43.1424 95.1615C41.8809 96.7059 40.6394 98.2602 39.4188 99.8241L40.2072 100.439ZM47.7183 91.2402C48.9994 89.7379 50.2989 88.2455 51.6156 86.7632L50.868 86.0991C49.5468 87.5863 48.243 89.0838 46.9574 90.5914L47.7183 91.2402ZM55.6064 82.3581C56.9457 80.908 58.3009 79.4683 59.671 78.039L58.9491 77.347C57.5748 78.7806 56.2154 80.2249 54.8718 81.6796L55.6064 82.3581ZM63.8247 73.7833C65.2173 72.3816 66.6235 70.9906 68.0423 69.6107L67.3451 68.8939C65.9222 70.2777 64.512 71.6727 63.1153 73.0785L63.8247 73.7833ZM72.3346 65.505C73.7766 64.1483 75.2301 62.8028 76.6941 61.4689L76.0205 60.7297C74.5527 62.0672 73.0953 63.4163 71.6493 64.7767L72.3346 65.505ZM81.1149 57.5032C82.5994 56.1921 84.0933 54.8928 85.5955 53.6056L84.9448 52.8462C83.4389 54.1366 81.9412 55.4392 80.4529 56.7537L81.1149 57.5032ZM90.1381 49.7706C91.66 48.5047 93.1892 47.2512 94.7246 46.0105L94.096 45.2327C92.557 46.4763 91.0242 47.7328 89.4986 49.0018L90.1381 49.7706ZM99.3804 42.3017C100.94 41.0773 102.504 39.8661 104.072 38.6684L103.466 37.8736C101.893 39.074 100.325 40.288 98.7627 41.5152L99.3804 42.3017ZM108.821 35.0925C110.417 33.9073 112.016 32.7363 113.617 31.5798L113.032 30.7692C111.427 31.9283 109.824 33.1019 108.225 34.2897L108.821 35.0925ZM118.444 28.1407C120.077 26.993 121.71 25.8607 123.344 24.7439L122.779 23.9184C121.142 25.0376 119.505 26.1724 117.869 27.3226L118.444 28.1407ZM128.242 21.4408C129.91 20.3311 131.577 19.2381 133.24 18.162L132.697 17.3223C131.03 18.4007 129.36 19.4961 127.688 20.6082L128.242 21.4408ZM138.228 14.981C139.923 13.915 141.614 12.8671 143.299 11.8377L142.778 10.9843C141.089 12.016 139.395 13.0661 137.696 14.1345L138.228 14.981ZM148.376 8.78125C150.098 7.76001 151.812 6.75877 153.517 5.77792L153.018 4.91112C151.31 5.89419 149.592 6.89767 147.866 7.92117L148.376 8.78125ZM158.682 2.85303C159.537 2.37611 160.39 1.90455 161.24 1.4384L160.76 0.561598C159.908 1.02885 159.053 1.50151 158.195 1.97954L158.682 2.85303Z" fill="black"/>
</svg>
